<?xml version="1.0" standalone="no"?>
<!DOCTYPE svg PUBLIC "-//W3C//DTD SVG 20010904//EN"
 "http://www.w3.org/TR/2001/REC-SVG-20010904/DTD/svg10.dtd">
<svg version="1.0" xmlns="http://www.w3.org/2000/svg"
 width="300.000000pt" height="300.000000pt" viewBox="0 0 300.000000 300.000000"
 preserveAspectRatio="xMidYMid meet">
<metadata>
Created by potrace 1.10, written by Peter Selinger 2001-2011
</metadata>
<g transform="translate(0.000000,300.000000) scale(0.100000,-0.100000)"
fill="#000000" stroke="none">
<path d="M1513 2361 c-17 -11 -44 -39 -61 -63 -44 -64 -326 -518 -345 -555
-32 -61 -18 -131 36 -181 32 -30 656 -368 708 -383 105 -32 217 85 188 195
-18 66 -69 104 -314 235 -126 68 -234 127 -239 131 -4 5 47 96 114 204 67 108
129 214 136 237 34 98 -44 199 -153 199 -21 0 -52 -9 -70 -19z m141 -40 c16
-11 35 -30 42 -43 29 -52 19 -76 -132 -318 -81 -129 -143 -235 -138 -237 42
-14 534 -289 551 -308 55 -63 30 -159 -51 -190 -25 -10 -53 -14 -65 -10 -50
16 -669 355 -698 383 -27 25 -33 38 -33 72 0 36 22 77 182 333 101 161 194
302 207 315 31 28 94 30 135 3z"/>
<path d="M1033 1481 c-28 -13 -49 -33 -68 -66 -38 -65 -32 -127 18 -189 l37
-44 -24 -6 c-38 -9 -85 -54 -95 -90 -14 -51 -3 -83 44 -129 l43 -41 -29 -13
c-16 -7 -36 -27 -46 -47 -30 -65 -1 -96 180 -190 126 -66 154 -69 192 -24 27
31 29 57 10 101 -6 14 8 10 66 -18 86 -41 116 -40 166 8 38 35 51 87 35 131
-7 16 -10 31 -8 33 2 2 29 -10 61 -27 68 -36 113 -38 167 -8 83 47 111 148 62
224 -32 50 -32 50 -391 243 -193 104 -315 164 -340 167 -25 3 -52 -2 -80 -15z
m417 -196 c187 -101 337 -188 353 -205 67 -74 6 -200 -97 -200 -37 0 -669 344
-701 382 -62 74 -3 197 95 198 14 0 171 -79 350 -175z m-189 -266 c123 -67
234 -131 247 -142 15 -14 22 -32 22 -56 -1 -44 -18 -68 -59 -82 -30 -10 -44
-4 -275 121 -202 109 -247 137 -256 161 -21 51 22 119 75 119 12 0 122 -55
246 -121z m-163 -201 c151 -81 172 -95 172 -121 0 -28 -17 -47 -43 -47 -18 0
-168 76 -249 127 -40 24 -50 57 -26 81 21 21 46 14 146 -40z"/>
</g>
</svg>
